<?xml version="1.0" encoding="utf-8"?>
<!-- Generator: Adobe Illustrator 16.0.0, SVG Export Plug-In . SVG Version: 6.00 Build 0)  -->
<!DOCTYPE svg PUBLIC "-//W3C//DTD SVG 1.1//EN" "http://www.w3.org/Graphics/SVG/1.1/DTD/svg11.dtd">
<svg version="1.1" id="Calque_1" xmlns="http://www.w3.org/2000/svg" xmlns:xlink="http://www.w3.org/1999/xlink" x="0px" y="0px"
	 width="81.75px" height="81.75px" viewBox="-0.875 -0.875 81.75 81.75" enable-background="new -0.875 -0.875 81.75 81.75"
	 xml:space="preserve">
<title>Ico-100</title>
<desc>Created with Sketch.</desc>
<g id="Page-1">
	<g id="Ico-100_1_">
		<g id="Symbols">
			<g id="Ico-100">
				<defs>
					<filter id="Adobe_OpacityMaskFilter" filterUnits="userSpaceOnUse" x="-1" y="-1" width="82" height="82">
						<feColorMatrix  type="matrix" values="1 0 0 0 0  0 1 0 0 0  0 0 1 0 0  0 0 0 1 0"/>
					</filter>
				</defs>
				<mask maskUnits="userSpaceOnUse" x="-1" y="-1" width="82" height="82" id="mask-2">
					<g filter="url(#Adobe_OpacityMaskFilter)">
						<circle id="path-1" fill="#FFFFFF" cx="40" cy="40" r="40"/>
					</g>
				</mask>
				<g id="Group" mask="url(#mask-2)">
					<g id="Oval-4">
						<circle id="path-1_1_" fill="none" stroke="#C79111" stroke-width="2" cx="40" cy="40" r="40"/>
					</g>
					<path id="Fill-1" fill="#C79111" d="M59,27v-0.572C59,23.993,56.885,22,54.3,22H19.7c-2.585,0-4.7,1.993-4.7,4.428V27H59L59,27
						z"/>
					<g id="Fill-3-Clipped" transform="translate(15.000000, 22.000000)">
						<g id="path-1_2_">
						</g>
						<defs>
							<filter id="Adobe_OpacityMaskFilter_1_" filterUnits="userSpaceOnUse" x="0" y="13" width="44" height="15">
								<feColorMatrix  type="matrix" values="1 0 0 0 0  0 1 0 0 0  0 0 1 0 0  0 0 0 1 0"/>
							</filter>
						</defs>
						<mask maskUnits="userSpaceOnUse" x="0" y="13" width="44" height="15" id="mask-4">
							<g filter="url(#Adobe_OpacityMaskFilter_1_)">
								<polygon id="path-3" fill="#FFFFFF" points="0,42 55,42 55,0 0,0 								"/>
							</g>
						</mask>
						<path id="Fill-3" mask="url(#mask-4)" fill="#C79111" d="M4.965,17.192h13.868V16.08H4.965V17.192L4.965,17.192z
							 M4.965,19.258h13.868v-1.112H4.965V19.258L4.965,19.258z M4.965,21.324h13.868v-1.112H4.965V21.324L4.965,21.324z
							 M28.42,27.285c0-6.803,5.941-12.318,13.269-12.318c0.789,0,1.561,0.067,2.312,0.19V13H0v10.637C0,26.037,2.115,28,4.7,28
							h23.744C28.43,27.764,28.42,27.525,28.42,27.285L28.42,27.285z"/>
					</g>
					<g id="Fill-5-Clipped" transform="translate(15.000000, 22.000000)">
						<g id="path-1_3_">
						</g>
						<defs>
							<filter id="Adobe_OpacityMaskFilter_2_" filterUnits="userSpaceOnUse" x="27" y="14" width="26" height="27">
								<feColorMatrix  type="matrix" values="1 0 0 0 0  0 1 0 0 0  0 0 1 0 0  0 0 0 1 0"/>
							</filter>
						</defs>
						<mask maskUnits="userSpaceOnUse" x="27" y="14" width="26" height="27" id="mask-6">
							<g filter="url(#Adobe_OpacityMaskFilter_2_)">
								<polygon id="path-5" fill="#FFFFFF" points="0,42 55,42 55,0 0,0 								"/>
							</g>
						</mask>
						<path id="Fill-5" mask="url(#mask-6)" fill="#C79111" d="M40,14c-7.18,0-13,6.044-13,13.5S32.82,41,40,41s13-6.044,13-13.5
							S47.18,14,40,14 M40,15.742c6.243,0,11.322,5.274,11.322,11.758S46.243,39.258,40,39.258S28.678,33.983,28.678,27.5
							S33.757,15.742,40,15.742"/>
					</g>
					<g id="Fill-6-Clipped" transform="translate(15.000000, 22.000000)">
						<g id="path-1_4_">
						</g>
						<defs>
							<filter id="Adobe_OpacityMaskFilter_3_" filterUnits="userSpaceOnUse" x="35" y="22" width="10" height="11">
								<feColorMatrix  type="matrix" values="1 0 0 0 0  0 1 0 0 0  0 0 1 0 0  0 0 0 1 0"/>
							</filter>
						</defs>
						<mask maskUnits="userSpaceOnUse" x="35" y="22" width="10" height="11" id="mask-8">
							<g filter="url(#Adobe_OpacityMaskFilter_3_)">
								<polygon id="path-7" fill="#FFFFFF" points="0,42 55,42 55,0 0,0 								"/>
							</g>
						</mask>
						<path id="Fill-6" mask="url(#mask-8)" fill="#C79111" d="M38,27v-1.285C38.006,25.355,38,24,40,24s1.994,1.361,2,1.715L38,27
							L38,27z M40.5,32h-1v-1.404c-0.297-0.148-0.5-0.422-0.5-0.738C39,29.384,39.447,29,40,29s1,0.384,1,0.857
							c0,0.316-0.202,0.59-0.5,0.738V32L40.5,32z M43.5,26.584v-1.376c0,0,0-3.208-3.5-3.208s-3.5,3.208-3.5,3.208v1.376H35V33h10
							v-6.416H43.5L43.5,26.584z"/>
					</g>
				</g>
			</g>
		</g>
	</g>
</g>
</svg>
