<?xml version="1.0" encoding="utf-8"?>
<!-- Generator: Adobe Illustrator 16.0.0, SVG Export Plug-In . SVG Version: 6.00 Build 0)  -->
<!DOCTYPE svg PUBLIC "-//W3C//DTD SVG 1.1//EN" "http://www.w3.org/Graphics/SVG/1.1/DTD/svg11.dtd">
<svg version="1.1" id="Calque_1" xmlns="http://www.w3.org/2000/svg" xmlns:xlink="http://www.w3.org/1999/xlink" x="0px" y="0px"
	 width="83px" height="83px" viewBox="-1.5 -1.5 83 83" enable-background="new -1.5 -1.5 83 83" xml:space="preserve">
<title>Ico-Emballage</title>
<desc>Created with Sketch.</desc>
<g id="Symbols">
	<g id="Ico-Emballage">
		<g>
			<path id="Fill-1" fill="#C79111" d="M49.945,44.46c-0.253,0-0.487-0.136-0.618-0.358l-7.236-12.338v34.2l19.69-3.223V44.46
				H49.945z"/>
			<path id="Fill-3" fill="#C79111" d="M39.972,30.984l-7.029,13.302c-0.136,0.257-0.405,0.417-0.697,0.417c-0.01,0-0.02,0-0.03,0
				l-13.707-0.508v18.799l21.462,3.369V30.984z"/>
			<polygon id="Fill-6" fill="#C79111" points="72.146,42.127 63.826,31.655 43.127,28.654 51.238,42.127 			"/>
			<polygon id="Fill-8" fill="#C79111" points="30.634,43.164 37.945,28.654 17.523,31.711 11,42.401 			"/>
			<polygon id="Fill-10" fill="#C79111" points="24.991,23.473 25.471,24.496 26.545,24.66 25.768,25.457 25.952,26.582 
				24.991,26.051 24.03,26.582 24.213,25.457 23.437,24.66 24.51,24.496 			"/>
			<polygon id="Fill-12" fill="#C79111" points="52.973,23.473 53.453,24.496 54.527,24.66 53.75,25.457 53.934,26.582 
				52.973,26.051 52.012,26.582 52.195,25.457 51.418,24.66 52.492,24.496 			"/>
			<polygon id="Fill-14" fill="#C79111" points="31.209,15.182 32.01,16.888 33.8,17.161 32.504,18.489 32.811,20.364 
				31.209,19.479 29.608,20.364 29.914,18.489 28.618,17.161 30.409,16.888 			"/>
			<polygon id="Fill-18" fill="#C79111" points="39.53,10.183 40.62,12.464 43.059,12.83 41.294,14.604 41.711,17.111 39.53,15.928 
				37.349,17.111 37.766,14.604 36.001,12.83 38.439,12.464 			"/>
			<polygon id="Fill-16" fill="#C79111" points="48.828,15.182 49.628,16.888 51.418,17.161 50.123,18.489 50.429,20.364 
				48.828,19.479 47.227,20.364 47.531,18.489 46.236,17.161 48.027,16.888 			"/>
			<circle id="Oval-4" fill="none" stroke="#C79111" cx="40" cy="40" r="40"/>
		</g>
	</g>
</g>
</svg>
